<svg width="97" height="60" viewBox="0 0 97 60" fill="none" xmlns="http://www.w3.org/2000/svg">
<path d="M12.1028 2.05982C12.5517 2.02008 13.0004 2.05982 13.4489 2.17922C14.304 2.39789 15.0521 2.70141 15.6931 3.08945C16.3345 3.47766 16.8955 3.93562 17.3763 4.46318C17.8574 4.99041 18.2794 5.57263 18.6424 6.20986C19.0058 6.84676 19.3479 7.52356 19.6687 8.24028C19.6898 8.28019 19.7004 8.30987 19.7004 8.32949C19.722 8.3694 19.7328 8.43916 19.7328 8.53877C19.8182 8.81747 19.8981 9.11596 19.9727 9.43424C20.0476 9.75269 20.1063 10.1109 20.1491 10.5088C20.3416 11.9818 20.2456 13.3455 19.861 14.5998C19.7112 15.0972 19.5668 15.5548 19.4282 15.9729C19.2894 16.3911 19.1237 16.7892 18.9312 17.1675C18.8884 17.2074 18.8563 17.2572 18.8347 17.3171C18.8135 17.3766 18.7816 17.4263 18.7389 17.466C18.6961 17.5457 18.6534 17.6005 18.6107 17.6304C18.5679 17.6599 18.5038 17.7543 18.4184 17.9134C18.3329 18.0928 18.3221 18.2173 18.386 18.287C18.4503 18.3568 18.6748 18.5607 19.0594 18.8988C20.0854 19.8545 20.8013 20.7501 21.2071 21.5859C21.3141 21.8252 21.373 22.0692 21.3836 22.3177C21.394 22.5664 21.378 22.8301 21.3353 23.1092C21.2925 23.3279 21.1909 23.5167 21.0307 23.676C20.8708 23.8351 20.6412 23.9545 20.3421 24.0342C20.1923 24.0543 20.0051 24.0644 19.7804 24.0644C19.556 24.0644 19.3693 24.0444 19.22 24.0047C19.0702 23.9647 18.8563 23.8801 18.5783 23.7504C18.3007 23.6211 18.0176 23.4769 17.7292 23.3178C17.4406 23.1585 17.1734 22.9993 16.9276 22.8402C16.6816 22.6811 16.5055 22.5417 16.3989 22.4223C16.2918 22.3227 16.2113 22.2231 16.1577 22.1238C16.1044 22.0242 16.0349 21.9246 15.9495 21.8253C15.8213 21.6858 15.725 21.5963 15.6607 21.5564C15.5968 21.5166 15.5543 21.4866 15.5332 21.4665C15.4477 21.387 15.3087 21.397 15.1162 21.4967C15.0096 21.5763 14.8867 21.656 14.7475 21.7355C14.6087 21.8151 14.4752 21.9048 14.347 22.0044C14.3254 22.0242 14.2558 22.0739 14.1382 22.1533C14.021 22.233 13.8983 22.3126 13.7701 22.3921C13.6419 22.4718 13.519 22.5464 13.4014 22.6162C13.2836 22.6859 13.2141 22.7208 13.1925 22.7208C13.1713 22.7406 12.7867 22.9395 12.0387 23.3178C11.4831 23.5963 10.9112 23.8152 10.3232 23.9745C9.73547 24.1341 9.12112 24.2139 8.48013 24.2139C7.45453 24.2139 6.41778 23.9798 5.37022 23.5116C4.32302 23.0438 3.42526 22.4917 2.67731 21.8548C2.29272 21.5366 1.97744 21.2481 1.73166 20.9896C1.48571 20.7306 1.27739 20.462 1.10651 20.1833C0.935461 19.9043 0.786015 19.6056 0.657816 19.2871C0.529617 18.9689 0.401418 18.5907 0.273219 18.1529C0.187693 17.8738 0.14502 17.5901 0.14502 17.3017C0.14502 17.0132 0.155823 16.7198 0.177429 16.421C0.198496 15.744 0.321113 14.9775 0.545462 14.1216C0.770171 13.2657 1.0534 12.4049 1.39532 11.5391C1.73707 10.6735 2.12166 9.83737 2.54911 9.03111C2.97692 8.22485 3.415 7.52323 3.86352 6.92624C4.14152 6.54793 4.39252 6.19963 4.61687 5.88119C4.84157 5.56291 5.114 5.25435 5.43432 4.95553C5.4986 4.89616 5.56287 4.82657 5.62733 4.74692C5.84088 4.42814 6.10268 4.10952 6.41237 3.79107C6.72243 3.4728 7.05913 3.234 7.42212 3.07469C7.55032 2.99521 7.71057 2.94037 7.90323 2.91036C8.09571 2.88051 8.27738 2.86541 8.44844 2.86541C8.70483 2.86541 8.9931 2.95513 9.31342 3.13439C9.5059 3.25379 9.6449 3.31349 9.73043 3.31349C9.81577 3.31349 9.95478 3.234 10.1474 3.07469C10.8954 2.4975 11.5472 2.1591 12.1028 2.05982ZM13.5778 5.10511C13.4491 4.98571 13.3045 4.88627 13.1443 4.80662C12.9844 4.72713 12.7548 4.68722 12.4557 4.68722C11.4296 4.68722 10.5745 4.93121 9.89032 5.41903C9.20647 5.90651 8.5869 6.52831 8.03143 7.28443C7.06957 8.5983 6.3002 9.97186 5.72312 11.405C5.14587 12.8382 4.77189 14.3409 4.60102 15.9132C4.60102 16.2518 4.56879 16.5903 4.50451 16.9287C4.44059 17.2668 4.4514 17.6149 4.53692 17.9731L4.69753 18.6902L4.79332 18.9585C4.94313 19.3569 5.1889 19.7104 5.53083 20.019C5.87257 20.3275 6.27859 20.4818 6.74872 20.4818C7.11207 20.4818 7.51287 20.4221 7.95076 20.3027C8.38902 20.183 8.83267 20.0335 9.28173 19.8546C9.73061 19.6754 10.1635 19.4763 10.5803 19.2576C10.9969 19.0386 11.3441 18.8195 11.6217 18.6003C11.8569 18.4411 12.0013 18.3169 12.0546 18.2273C12.1079 18.138 12.1345 18.0734 12.1345 18.0335C12.1345 17.8542 11.8567 17.5656 11.3012 17.1675C10.8738 16.8689 10.5212 16.6301 10.2432 16.4511C9.96558 16.2719 9.82694 16.1624 9.82694 16.1225C9.82694 15.9829 9.90148 15.774 10.0509 15.4953C10.2434 15.1569 10.532 15.0375 10.9166 15.1371C11.002 15.1371 11.0769 15.147 11.1413 15.1666H11.2371C11.5362 15.1867 12.2735 15.3959 13.4489 15.7938C13.8978 15.9132 14.1223 15.9729 14.1223 15.9729C14.2077 15.9533 14.3467 15.8339 14.5393 15.6147C14.8384 15.2168 14.988 15.0177 14.988 15.0177C15.0096 14.9976 15.0204 14.9778 15.0204 14.958C15.0415 14.9379 15.0734 14.8881 15.1162 14.8084C15.2444 14.5696 15.3618 14.2711 15.4684 13.913C15.5754 13.5548 15.6769 13.1817 15.7731 12.7934C15.8696 12.4054 15.9445 12.0273 15.9978 11.6592C16.0511 11.2908 16.0885 10.9673 16.1101 10.6886C16.1312 10.2901 16.1152 9.87695 16.0619 9.449C16.0086 9.02105 15.875 8.58824 15.6614 8.15039C15.5543 7.9116 15.4528 7.72764 15.3568 7.59835C15.2606 7.46873 15.1913 7.36409 15.1486 7.28443C15.1486 7.28443 15.1058 7.20495 15.0204 7.04564C14.7424 6.58784 14.4911 6.19963 14.2664 5.88119C14.042 5.56291 13.8126 5.30416 13.5778 5.10511Z" fill="#101010"/>
<path d="M37.2361 8.32971C37.4713 8.32971 37.7225 8.39461 37.9895 8.52423C38.2569 8.65353 38.5027 8.8177 38.727 9.01658C38.9517 9.21563 39.1334 9.43966 39.2722 9.68869C39.4108 9.93737 39.4804 10.181 39.4804 10.4198C39.4804 10.5196 39.4695 10.669 39.4479 10.8679C39.4267 11.0669 39.363 11.3156 39.2564 11.6138C38.8286 12.848 38.5718 13.7936 38.4864 14.4505C38.4864 14.4505 38.465 14.5501 38.4223 14.749C38.3584 15.3661 38.3266 15.9634 38.3266 16.5406C38.3266 17.1179 38.3478 17.6653 38.3907 18.1826C38.476 18.7399 38.6204 19.1827 38.8235 19.5114C39.0266 19.8398 39.4699 20.0038 40.1538 20.0038C40.5384 20.0038 40.8909 19.9043 41.2118 19.7053C41.2971 19.6655 41.3612 19.6407 41.4041 19.6308C41.4467 19.6211 41.4894 19.606 41.5323 19.5859C41.6176 19.5662 41.7458 19.5564 41.9169 19.5564C42.0877 19.5564 42.1733 19.5662 42.1733 19.5859C42.1733 19.9043 42.1038 20.2477 41.9651 20.6162C41.8263 20.9842 41.6446 21.3424 41.4199 21.6907C41.1956 22.0392 40.9446 22.3627 40.6666 22.6613C40.3889 22.96 40.1217 23.1988 39.8649 23.3777C39.7155 23.4773 39.5713 23.5421 39.4321 23.5716C39.2933 23.6014 39.1384 23.6066 38.9676 23.587C38.2621 23.4872 37.6103 23.2684 37.0122 22.9303C36.4138 22.5919 35.8688 22.1936 35.3773 21.7357C35.2275 21.5962 35.0402 21.4719 34.8155 21.3627C34.5911 21.2532 34.4471 21.2183 34.3834 21.2581C34.2123 21.3574 34.0521 21.4768 33.9022 21.6163C33.7528 21.7558 33.6142 21.9052 33.486 22.0644C33.3145 22.2433 33.0792 22.4472 32.7801 22.6761C32.4809 22.9052 32.2032 23.099 31.9468 23.2583C31.4978 23.5967 31.0062 23.8407 30.4718 23.9901C29.9378 24.1394 29.3929 24.2142 28.8369 24.2142C28.2597 24.2142 27.7093 24.1343 27.1855 23.9747C26.6621 23.8154 26.1759 23.5914 25.727 23.3026C25.2785 23.0142 24.8939 22.666 24.5732 22.2582C24.2529 21.85 24.0071 21.3872 23.8357 20.8697C23.7718 20.6309 23.7237 20.3624 23.6917 20.0641C23.6595 19.7655 23.6647 19.4269 23.7075 19.0486C23.8784 17.6155 24.0867 16.3117 24.3327 15.1373C24.5785 13.9632 24.8831 12.7487 25.2466 11.4944C25.2893 11.3353 25.3212 11.1811 25.3424 11.0322C25.364 10.883 25.3961 10.7287 25.4389 10.5694C25.5459 10.2904 25.6208 10.0514 25.6636 9.85235C25.7063 9.65347 25.781 9.49416 25.8876 9.37477C26.1867 8.99646 26.4753 8.8073 26.7533 8.8073C26.9031 8.8073 27.074 8.85224 27.2661 8.94212C27.4586 9.03167 27.6509 9.14117 27.843 9.2708C28.0355 9.40009 28.212 9.53441 28.3724 9.67393C28.5326 9.81311 28.6448 9.93218 28.7087 10.0314C28.7941 10.171 28.853 10.3056 28.8852 10.4353C28.9172 10.5645 28.9439 10.6888 28.9651 10.8082C28.9867 10.9075 28.9975 11.0119 28.9975 11.1214C28.9975 11.2311 29.008 11.3554 29.0292 11.4944C29.0292 11.5544 29.0078 11.7037 28.9651 11.9425C28.9223 12.1813 28.8688 12.4351 28.8045 12.7038C28.7406 12.9726 28.6821 13.2263 28.6288 13.4651C28.5755 13.7039 28.538 13.8632 28.5164 13.9427C28.1318 15.6349 27.854 16.9288 27.6831 17.8244C27.5121 18.7202 27.48 19.4068 27.5866 19.8844C27.6293 20.1631 27.6774 20.3472 27.7307 20.4371C27.7843 20.5266 27.854 20.5912 27.9395 20.6309C28.1531 20.7307 28.3776 20.7208 28.613 20.6014C29.1684 20.3425 29.6864 20.0041 30.1672 19.5859C30.6483 19.1678 31.0972 18.7102 31.514 18.2128C31.9306 17.7151 32.3048 17.1926 32.6361 16.6452C32.9674 16.0979 33.2398 15.5753 33.4535 15.0776C33.7742 14.3411 34.0733 13.5949 34.3509 12.8386C34.6289 12.082 34.8855 11.4151 35.1209 10.8377C35.2917 10.3799 35.4414 10.0066 35.5696 9.7182C35.6978 9.42977 35.826 9.2158 35.9542 9.07628C36.125 8.85727 36.3065 8.67818 36.4986 8.53899C36.6911 8.39947 36.9369 8.32971 37.2361 8.32971Z" fill="#101010"/>
<path d="M45.1559 2.32825C45.4123 2.32825 45.6687 2.37319 45.9251 2.46307C46.1815 2.55262 46.4165 2.67688 46.6302 2.83602C46.8438 2.99533 47.0256 3.17945 47.1754 3.38873C47.3252 3.59767 47.432 3.82138 47.4959 4.06017C47.5602 4.359 47.5816 4.62764 47.56 4.86643C47.5172 5.22462 47.3677 5.51825 47.1113 5.74715C46.8549 5.97622 46.5236 6.09058 46.1174 6.09058C45.968 6.09058 45.7757 6.0609 45.5405 6.00137C45.3052 5.9415 45.0699 5.85682 44.8347 5.74715C44.5999 5.63765 44.3862 5.51825 44.1937 5.38896C44.0016 5.25933 43.8628 5.13474 43.7774 5.01534C43.5637 4.61741 43.5637 4.04038 43.7774 3.28409C43.8628 2.94569 44.0284 2.7017 44.2744 2.55228C44.5202 2.40304 44.814 2.32825 45.1559 2.32825ZM44.7713 8.3893C44.9206 8.3893 45.1073 8.43928 45.3317 8.53888C45.5564 8.63816 45.7807 8.75755 46.0051 8.89707C46.2298 9.03626 46.4381 9.1855 46.6302 9.34515C46.8227 9.50445 46.9725 9.64364 47.0796 9.76304C47.4853 10.2604 47.6241 10.8872 47.4959 11.6439C47.4959 11.6838 47.4851 11.7733 47.4635 11.9128C47.4423 12.052 47.4212 12.2409 47.4001 12.4796C47.4001 12.5397 47.3893 12.6641 47.3677 12.8533C47.3465 13.0424 47.3305 13.2366 47.3195 13.4355C47.3088 13.6345 47.2928 13.8237 47.2712 14.003C47.25 14.1819 47.2395 14.3013 47.2395 14.3611C47.2183 14.6197 47.1916 14.968 47.1596 15.4062C47.1273 15.844 47.1005 16.3117 47.0789 16.8094C47.0577 17.3068 47.0416 17.7844 47.0307 18.2422C47.02 18.7002 47.0148 19.0684 47.0148 19.347C47.0364 20.7405 46.919 21.7656 46.6626 22.4224C46.5555 22.6411 46.4484 22.8301 46.3414 22.9892C46.2348 23.1489 46.1068 23.2783 45.9575 23.3776C45.6795 23.5966 45.3054 23.6563 44.8354 23.5567C44.7283 23.5168 44.5733 23.4571 44.3702 23.3776C44.1671 23.298 43.9481 23.1786 43.7133 23.0194C43.3714 22.8205 43.1523 22.6564 43.0558 22.5271C42.9596 22.3974 42.8689 22.1934 42.7835 21.9147C42.7619 21.7751 42.7297 21.4569 42.687 20.9595C42.687 20.5213 42.7083 20.0882 42.7511 19.6602C42.7938 19.2323 42.8473 18.7994 42.9117 18.3616L42.9758 17.8538C42.9969 17.6947 43.0127 17.5305 43.0234 17.3615C43.0343 17.1925 43.0612 17.0184 43.104 16.839C43.1256 16.7394 43.1469 16.5552 43.1681 16.2869C43.1897 16.0183 43.2164 15.7396 43.2481 15.4511C43.2801 15.1624 43.3068 14.8984 43.328 14.6596C43.3496 14.4208 43.3604 14.2813 43.3604 14.2411C43.3604 14.2215 43.3656 14.1121 43.3763 13.9131C43.3872 13.7142 43.4033 13.4903 43.4245 13.2416C43.4461 12.9926 43.4728 12.7438 43.5045 12.4951C43.5365 12.246 43.5635 12.0618 43.5851 11.9424C43.6278 11.6437 43.6651 11.4049 43.6968 11.226C43.7288 11.0467 43.745 10.9273 43.745 10.8678C43.7877 10.6885 43.8091 10.5441 43.8091 10.4345C43.8091 10.325 43.8199 10.2304 43.8415 10.1507C43.8626 9.9916 43.8837 9.86734 43.9049 9.77779C43.9265 9.68841 43.9373 9.6039 43.9373 9.52424C43.9589 9.32486 44.039 9.0859 44.1779 8.80719C44.3165 8.52866 44.5144 8.3893 44.7713 8.3893Z" fill="#101010"/>
<path d="M57.1447 8.68774C58.2562 8.68774 59.2819 8.92167 60.2222 9.38937C61.1628 9.85723 61.8789 10.5689 62.3706 11.5244C62.5415 11.8826 62.627 12.1912 62.627 12.4501C62.627 12.7288 62.5842 12.9329 62.4988 13.0625C62.4133 13.1918 62.2424 13.2963 61.986 13.3757C61.8789 13.4156 61.788 13.4455 61.7131 13.4656C61.6381 13.4854 61.5686 13.4951 61.5049 13.4951C61.3978 13.4951 61.2906 13.4753 61.1837 13.4354C61.0771 13.3957 60.9383 13.3259 60.7674 13.2262C60.4465 13.067 60.1741 12.9428 59.95 12.8532C59.7256 12.7633 59.5495 12.6986 59.4213 12.6587C58.9296 12.5594 58.4807 12.5098 58.0745 12.5098C57.9034 12.5098 57.7592 12.5148 57.6416 12.5245C57.5239 12.5344 57.4119 12.5494 57.3053 12.5695C56.5999 12.8083 55.9853 13.2114 55.4615 13.7789C54.9381 14.346 54.5483 14.948 54.2919 15.5852C54.2491 15.7046 54.217 15.7744 54.1954 15.7945C54.1741 15.8143 54.1637 15.844 54.1637 15.8837C54.1637 15.8636 54.1529 15.9035 54.1313 16.0031C54.11 16.1024 54.0782 16.202 54.0355 16.3016C53.8212 16.9783 53.7037 17.6351 53.6826 18.2723C53.6397 18.9887 53.8749 19.5909 54.3877 20.0787C54.9005 20.5662 55.6058 20.8796 56.5037 21.0191C56.8883 21.0787 57.2837 21.1083 57.6899 21.1083C58.3097 21.1083 58.9348 21.0339 59.5654 20.885C60.1957 20.7357 60.7995 20.5414 61.3767 20.3021L61.4408 20.2726C61.5262 20.2328 61.6009 20.2028 61.6648 20.1827C61.8999 20.0834 62.1405 19.9791 62.3865 19.8694C62.6322 19.7599 62.8726 19.6357 63.1074 19.4965C63.2788 19.3969 63.3645 19.3469 63.3645 19.3469C63.3856 19.3469 63.6953 19.1678 64.2936 18.8096C64.4006 18.7498 64.4755 18.7197 64.5183 18.7197C64.5394 18.7001 64.5608 18.6902 64.5824 18.6902C64.5824 18.7301 64.5075 18.8792 64.3577 19.1376C64.2722 19.2772 64.2029 19.3969 64.1496 19.4965C64.0963 19.5958 64.0482 19.6853 64.0055 19.7648C63.5781 20.4817 63.0599 21.1637 62.4506 21.8106C61.8413 22.4573 61.0983 22.9199 60.2222 23.1985C60.1793 23.1985 60.1475 23.2085 60.1264 23.2286C59.9127 23.3878 59.4638 23.5072 58.7796 23.5868C58.6941 23.5868 58.6408 23.5966 58.6197 23.6163C58.5981 23.6163 58.5444 23.6212 58.4591 23.6311C58.3736 23.6413 58.2454 23.6563 58.0745 23.676C57.5401 23.7158 57.0592 23.7158 56.6319 23.676C56.5464 23.676 56.45 23.666 56.3431 23.6459C56.2365 23.6261 56.1403 23.6163 56.055 23.6163C55.6059 23.5764 55.1518 23.4869 54.6923 23.3474C54.2328 23.2082 53.8108 23.0291 53.4262 22.8101C53.2335 22.7108 53.1266 22.6662 53.105 22.6759C53.0837 22.6858 53.0733 22.681 53.0733 22.6612C53.0733 22.6214 53.02 22.5817 52.9134 22.5418C52.8489 22.502 52.7848 22.4623 52.7211 22.4224C52.614 22.4224 52.3253 22.2035 51.8554 21.7657C50.7653 20.8102 50.0815 19.8646 49.8035 18.929C49.8035 18.8692 49.7873 18.8046 49.7552 18.7352C49.723 18.6654 49.707 18.6107 49.707 18.5708C49.4506 17.6948 49.4614 16.63 49.7394 15.376C49.9319 14.4803 50.2309 13.6293 50.6368 12.823C51.043 12.0168 51.556 11.3103 52.1759 10.7034C52.7956 10.0962 53.5224 9.60854 54.356 9.24046C55.1895 8.87204 56.1191 8.68774 57.1447 8.68774Z" fill="#101010"/>
<path d="M69.2625 0.0596983C69.3052 0.0199553 69.4334 0 69.6471 0C69.8607 0 70.0105 0.0199553 70.0965 0.0596983C70.1392 0.0798213 70.2033 0.149581 70.2888 0.268978C70.3742 0.388374 70.5344 0.577531 70.7692 0.836447C71.0044 1.07491 71.2023 1.29861 71.3627 1.50789C71.5229 1.71683 71.6245 1.91068 71.6673 2.08944C71.6884 2.12935 71.6882 2.18905 71.6666 2.26854C71.6454 2.34819 71.6776 2.44763 71.7631 2.56703C71.8274 2.6668 71.8434 2.8511 71.8114 3.11974C71.7791 3.38855 71.7417 3.7516 71.699 4.20907C71.6351 4.8463 71.587 5.48856 71.555 6.13551C71.5227 6.78213 71.4961 7.42406 71.475 8.06129C71.475 8.22059 71.4642 8.36481 71.4426 8.49393C71.421 8.62322 71.4318 8.73775 71.475 8.83736C71.5388 8.95676 71.6241 9.01646 71.7307 9.01646C71.8377 9.01646 72.0089 8.97672 72.2442 8.89706C73.0777 8.61852 73.7509 8.47917 74.2637 8.47917C74.9263 8.47917 75.5675 8.65827 76.1874 9.01646C76.5504 9.21551 76.8976 9.46923 77.2289 9.77778C77.5602 10.0863 77.8486 10.4249 78.0946 10.7933C78.3404 11.1614 78.5379 11.5545 78.6873 11.9725C78.8371 12.3903 78.912 12.7982 78.912 13.1967C78.8692 13.8929 78.6823 14.4951 78.351 15.0031C78.0197 15.5107 77.6189 16.0131 77.1489 16.5103C76.9779 16.7098 76.8229 16.8742 76.6837 17.0033C76.5448 17.1326 76.4541 17.2471 76.4114 17.3467C76.3686 17.4264 76.374 17.501 76.4273 17.5708C76.4809 17.6402 76.6361 17.7445 76.8925 17.884C77.3198 18.1032 77.7096 18.2972 78.0622 18.4662C78.4151 18.6353 78.7305 18.8194 79.0085 19.0183C79.6067 19.4762 80.1357 19.9641 80.5952 20.4819C81.0547 20.9994 81.3593 21.6262 81.5091 22.3627C81.5729 22.7008 81.5783 22.9644 81.525 23.1536C81.4717 23.3427 81.3595 23.4871 81.1886 23.5869C81.0176 23.7063 80.8465 23.8106 80.6751 23.9001C80.5041 23.9895 80.344 24.0343 80.1947 24.0343C80.0665 24.0343 79.8314 23.8453 79.4896 23.4675C79.2327 23.1888 78.9866 22.9302 78.7514 22.6914C78.5166 22.4523 78.2496 22.1934 77.9505 21.9146C77.8007 21.7952 77.6243 21.6609 77.4212 21.5115C77.2184 21.3623 76.9995 21.1781 76.7643 20.9595C76.529 20.7606 76.2937 20.5664 76.0585 20.3772C75.8237 20.1881 75.6635 20.0737 75.5781 20.0338C75.471 19.9941 75.3909 19.9592 75.3376 19.9292C75.2843 19.8993 75.2362 19.8745 75.1935 19.8547C75.1935 19.8547 75.1453 19.825 75.0488 19.7655C74.9526 19.7056 74.8511 19.6407 74.7441 19.571C74.6375 19.5012 74.5362 19.4367 74.4402 19.3771C74.344 19.3173 74.2961 19.2873 74.2961 19.2873L74.2637 19.2577C74.2209 19.2175 74.1676 19.1876 74.1038 19.1679C73.5694 18.7895 72.7999 18.4314 71.7955 18.0933C71.154 17.8542 70.6945 17.7844 70.417 17.884C70.2888 17.9239 70.1977 17.9886 70.1441 18.0785C70.0908 18.1681 70.0479 18.3024 70.0159 18.4817C69.9836 18.6606 69.9462 18.8945 69.9035 19.1833C69.8607 19.4717 69.8074 19.8349 69.7436 20.2726C69.7008 20.5714 69.6473 20.8052 69.583 20.9742C69.5191 21.1433 69.4764 21.2677 69.4548 21.3472C69.4548 21.3871 69.4761 21.4817 69.5189 21.6309C69.5616 21.7803 69.5616 21.8949 69.5189 21.9743C69.4334 22.253 69.3641 22.4868 69.3108 22.676C69.2575 22.8651 69.188 23.0095 69.1026 23.1093C68.9744 23.2684 68.8515 23.4326 68.7339 23.6016C68.6161 23.7707 68.4184 23.9347 68.1404 24.094C67.9056 24.1936 67.5743 24.1639 67.1465 24.0048C66.7191 23.8455 66.3773 23.5869 66.1209 23.2287C66.0354 23.1289 65.9871 23.0043 65.9762 22.8551C65.9655 22.7058 65.9389 22.5515 65.8962 22.3922C65.7468 21.8945 65.6881 21.3375 65.7198 20.7207C65.7518 20.1036 65.7788 19.4167 65.8004 18.6601C65.8215 18.322 65.88 17.9838 65.9762 17.6452C66.0727 17.3068 66.1422 16.9682 66.185 16.6297C66.2277 16.4705 66.281 16.2767 66.3449 16.0481C66.4092 15.8192 66.4735 15.5652 66.5379 15.2861C66.6445 14.7492 66.7511 14.1871 66.8577 13.5998C66.9647 13.0122 67.0662 12.4399 67.1624 11.8826C67.2589 11.3256 67.355 10.798 67.4512 10.3003C67.5477 9.8026 67.6278 9.38454 67.6917 9.04597C67.7771 8.64804 67.8518 8.22529 67.9157 7.77755C67.98 7.32948 68.0335 7.01606 68.0763 6.83713C68.2045 5.94099 68.3219 5.17464 68.4285 4.53774C68.5355 3.90102 68.6104 3.47307 68.6532 3.25389C68.7391 2.79609 68.814 2.39799 68.8779 2.05993C68.9422 1.72152 68.9636 1.43276 68.942 1.19397C68.9208 1.09436 68.8995 0.999947 68.8779 0.910902C68.8567 0.821523 68.8567 0.7469 68.8779 0.686866C68.9849 0.328676 69.1131 0.119732 69.2625 0.0596983ZM74.9047 11.3454C74.7553 11.3454 74.5522 11.3901 74.2954 11.4795C74.039 11.5691 73.7826 11.6737 73.5262 11.7934C73.2698 11.9128 73.0293 12.0423 72.8046 12.1818C72.5802 12.321 72.4149 12.4501 72.3083 12.5695C72.2867 12.5893 72.2651 12.6091 72.2435 12.6292C72.2223 12.649 72.1904 12.6787 72.1477 12.7184C71.9767 12.8378 71.7683 13.0718 71.5226 13.42C71.2766 13.7685 71.1005 14.0323 70.9939 14.2116C70.9723 14.2313 70.9453 14.2562 70.9133 14.286C70.8816 14.316 70.8443 14.361 70.8016 14.4208C70.7372 14.5801 70.6997 14.7294 70.6893 14.8689C70.6787 15.0081 70.652 15.1471 70.6093 15.2861C70.5665 15.4256 70.5611 15.5502 70.5928 15.6597C70.6248 15.7694 70.6623 15.844 70.7051 15.8838C70.8549 16.023 71.1221 16.0526 71.5067 15.973C71.8058 15.8935 72.1423 15.7542 72.5165 15.5551C72.8904 15.3562 73.2536 15.1223 73.6062 14.8535C73.9591 14.5848 74.2798 14.3061 74.5684 14.0177C74.8568 13.7289 75.0653 13.465 75.1935 13.2262C75.3217 12.9673 75.4071 12.7236 75.4499 12.4951C75.4926 12.2662 75.514 12.0721 75.514 11.9128C75.514 11.6938 75.4712 11.5444 75.3858 11.4648C75.3003 11.3853 75.1399 11.3454 74.9047 11.3454Z" fill="#101010"/>
<path d="M19.7323 29.992C19.8815 29.9125 20.0524 29.9423 20.2451 30.0818C20.3304 30.1615 20.4586 30.276 20.6297 30.4253C20.8005 30.5747 21.0143 30.7887 21.2707 31.0672C21.5487 31.3459 21.8263 31.6345 22.104 31.9332C22.382 32.2315 22.6061 32.5499 22.7766 32.8883C22.7982 32.9282 22.8143 32.9581 22.8249 32.9782C22.8353 32.998 22.8515 33.0277 22.8732 33.0674C22.8942 33.0876 22.9475 33.1821 23.033 33.3512C23.1189 33.5202 23.2205 33.7144 23.3377 33.9334C23.4553 34.1526 23.5674 34.3766 23.674 34.6055C23.781 34.8341 23.8667 35.0281 23.9312 35.1877C24.4011 36.342 24.7538 37.4366 24.9892 38.4718C25.0102 38.5117 25.0369 38.6063 25.0691 38.7555C25.1012 38.905 25.1492 39.1089 25.2131 39.3673C25.2558 39.4867 25.2825 39.5863 25.2931 39.6658C25.3041 39.7454 25.3201 39.8152 25.3413 39.8751C25.384 39.9346 25.4162 40.064 25.4379 40.2634C25.4805 40.4625 25.5124 40.5819 25.5336 40.6216C25.5763 40.741 25.619 40.9201 25.6618 41.1589C25.7051 41.3977 25.7267 41.5671 25.7267 41.6667C25.7477 41.6865 25.7902 41.8656 25.8541 42.204C25.9184 42.5425 25.9825 42.9208 26.0464 43.3389C26.1107 43.7566 26.1696 44.1497 26.2229 44.5181C26.2766 44.8862 26.3036 45.1101 26.3036 45.1895C26.3462 45.5876 26.421 46.1003 26.5275 46.7276C26.6345 47.3546 26.7735 48.0859 26.9446 48.9217C27.137 49.9369 27.2334 50.7031 27.2334 51.2204C27.2334 51.32 27.2278 51.4247 27.2168 51.5343C27.2062 51.6438 27.1903 51.7483 27.1693 51.8476C27.0837 52.1261 26.9125 52.3651 26.6557 52.5646C26.4847 52.6639 26.2711 52.7135 26.0148 52.7135C25.6085 52.7135 25.2184 52.5791 24.8444 52.3104C24.4702 52.0416 24.1229 51.723 23.8022 51.3546C23.4819 50.9867 23.2041 50.5938 22.9689 50.176C22.7341 49.758 22.5635 49.3996 22.4569 49.1008C22.3713 48.8818 22.3125 48.613 22.2804 48.2945C22.2487 47.9762 22.2221 47.608 22.2005 47.1898C22.1576 46.2145 22.0723 45.2444 21.9441 44.2793C21.8159 43.3139 21.634 42.3534 21.3989 41.3977C20.9287 39.3872 20.6082 38.183 20.4374 37.7849C20.3729 37.5861 20.3088 37.4864 20.2451 37.4864C20.1379 37.4864 19.8922 37.7252 19.5076 38.2028C19.401 38.3423 19.3207 38.4569 19.267 38.5463C19.2137 38.6358 19.1656 38.7104 19.123 38.7703C18.9948 38.9497 18.8343 39.1786 18.6419 39.4572C18.4497 39.7359 18.236 40.0642 18.0009 40.4425C17.958 40.5021 17.8512 40.691 17.6804 41.0093C17.5948 41.1488 17.5147 41.2734 17.4398 41.3829C17.3649 41.4926 17.2954 41.5969 17.2317 41.6962C17.0606 41.9551 16.9645 42.1144 16.9429 42.1738C16.9216 42.2338 16.8789 42.3036 16.8147 42.3831C16.7507 42.4627 16.7081 42.5224 16.6865 42.5621C16.6436 42.6619 16.5957 42.7417 16.5424 42.8016C16.4891 42.8611 16.441 42.9405 16.3984 43.0397C16.3123 43.1591 16.2588 43.2587 16.2378 43.3382C16.1949 43.3781 16.0881 43.5473 15.9173 43.846C15.7246 44.1448 15.6178 44.304 15.5968 44.3236C15.447 44.5825 15.2918 44.8366 15.1315 45.0856C14.9711 45.3343 14.7948 45.5878 14.6029 45.8462C14.3036 46.2245 13.9403 46.4337 13.5125 46.4734C13.2777 46.4734 13.0213 46.3988 12.7433 46.2494C12.4656 46.1001 12.204 45.916 11.9582 45.6973C11.7123 45.4783 11.5039 45.2395 11.3331 44.9809C11.162 44.722 11.0552 44.4732 11.0126 44.2344C10.9265 43.8561 10.7663 43.5177 10.5315 43.2188C10.1469 42.7412 9.83681 42.2338 9.60166 41.6962C9.36633 41.1587 9.1526 40.6114 8.96066 40.0541C8.85353 39.8154 8.77341 39.6213 8.72011 39.4719C8.66681 39.3227 8.61874 39.2081 8.57606 39.1285C8.40501 38.7703 8.26601 38.5214 8.15906 38.3819L8.06255 38.2927L7.96676 38.3819C7.79571 38.442 7.63546 38.7106 7.48565 39.1882C7.35745 39.5066 7.23447 39.8501 7.1169 40.2185C6.99914 40.5866 6.88715 40.9897 6.78056 41.4279C6.75895 41.5473 6.71592 41.7114 6.65164 41.9202C6.58772 42.1292 6.54522 42.2834 6.52416 42.3831C6.52416 42.4823 6.50273 42.5769 6.46006 42.6668C6.4172 42.7563 6.4064 42.8009 6.42765 42.8009C6.42765 42.8409 6.42225 42.8606 6.4118 42.8606C6.40118 42.8606 6.39596 42.8806 6.39596 42.9203C6.39596 42.9804 6.36373 43.1296 6.29945 43.3684C6.2782 43.4677 6.24633 43.597 6.20366 43.7561L6.17125 43.846C6.17125 43.9257 6.16063 43.9853 6.13956 44.0251C6.11795 44.1047 6.09653 44.1844 6.07546 44.2639C6.05385 44.3435 6.03765 44.4381 6.02721 44.5476C6.01658 44.6573 5.98993 44.7916 5.94726 44.9508C5.8828 45.2692 5.7971 45.6126 5.69014 45.9811C5.58355 46.3491 5.51945 46.6127 5.49784 46.7719C5.43392 47.0308 5.40205 47.1702 5.40205 47.1898C5.38045 47.2297 5.36424 47.3144 5.3538 47.444C5.34318 47.5733 5.31653 47.7276 5.27386 47.9068C5.01746 49.3798 4.79293 50.4348 4.60045 51.0715C4.49386 51.35 4.35486 51.5888 4.18344 51.7879C4.01239 51.9868 3.75599 52.0864 3.41425 52.0864C2.8586 52.0864 2.0786 51.8873 1.07425 51.4894C0.753395 51.37 0.518243 51.2457 0.368438 51.1164C0.218992 50.9868 0.112219 50.8126 0.0479397 50.5939C-0.0159799 50.3154 -0.0159799 49.9671 0.0479397 49.5489C0.112219 49.1308 0.181901 48.7476 0.256803 48.3992C0.331706 48.0509 0.411831 47.7375 0.497357 47.4588C0.518423 47.3394 0.582523 47.1205 0.689656 46.8021C0.732329 46.7025 0.807051 46.4933 0.913644 46.1749C1.0206 45.8566 1.11693 45.5779 1.20245 45.3391C1.33065 44.9608 1.52295 44.3786 1.77935 43.5924C2.03575 42.806 2.38829 41.6861 2.83735 40.2332C2.88002 40.0741 2.94412 39.8702 3.02965 39.6215C3.115 39.3725 3.21133 39.0887 3.31846 38.7703C3.80965 37.198 4.20469 35.9393 4.50394 34.9939C4.80355 34.0481 5.0279 33.406 5.17735 33.0674C5.43374 32.4106 5.63685 31.9727 5.78665 31.7541C5.95752 31.5748 6.16063 31.4952 6.39596 31.5153C6.67342 31.5153 6.85492 31.6246 6.94044 31.8433C7.1756 32.341 7.4482 32.7441 7.75789 33.0527C8.06795 33.3612 8.4475 33.6748 8.89656 33.9931C9.23831 34.2123 9.5588 34.4663 9.85806 34.7551C10.1571 35.0435 10.4562 35.3568 10.7555 35.6948C10.8197 35.7946 10.8999 35.8944 10.996 35.994C11.0925 36.0933 11.1941 36.2226 11.3007 36.3817C11.5142 36.6604 11.6212 36.8296 11.6212 36.8895C11.6212 36.9093 11.632 36.929 11.6536 36.9492C11.6962 36.969 11.7281 37.0287 11.7494 37.1283C11.8136 37.2477 11.9204 37.4519 12.0699 37.7407C12.2197 38.0291 12.4228 38.4222 12.6792 38.9199C12.8716 39.318 12.9892 39.5169 13.0321 39.5169C13.0747 39.5169 13.2029 39.3277 13.4167 38.9494C13.5233 38.7701 13.6619 38.5362 13.8329 38.2478C14.0044 37.9593 14.2075 37.6159 14.4423 37.2175C14.6558 36.8593 14.8377 36.5658 14.9875 36.3368C15.1373 36.1079 15.244 35.9336 15.308 35.8142C15.3296 35.7946 15.4149 35.6553 15.5644 35.3963C15.6713 35.1975 15.7354 35.0878 15.7567 35.0677C15.7783 35.048 15.7943 35.0184 15.8049 34.9784C15.8154 34.9387 15.8528 34.8689 15.9173 34.7692C16.0455 34.5904 16.1308 34.4611 16.1737 34.3815C16.4517 33.9433 16.6652 33.5999 16.8147 33.3512C16.9645 33.1026 17.0606 32.9584 17.1035 32.9185C17.1245 32.9185 17.1726 32.8588 17.2475 32.7394C17.3224 32.6197 17.4558 32.4205 17.648 32.1418C17.7122 32.0623 17.7711 31.9878 17.8244 31.9184C17.8781 31.8486 17.9263 31.7839 17.9692 31.7239C18.0758 31.6045 18.1343 31.5351 18.1449 31.5153C18.1559 31.4952 18.2468 31.3856 18.4179 31.1866C18.9094 30.5695 19.3477 30.1714 19.7323 29.992Z" fill="#101010"/>
<path d="M39.0321 36.6206C39.481 36.6206 39.9565 36.6803 40.4589 36.7997C40.961 36.9191 41.4472 37.0834 41.9173 37.2927C42.3872 37.5017 42.8307 37.7453 43.2476 38.0239C43.6642 38.3026 44.0221 38.6012 44.3214 38.92C44.7919 39.4375 45.1072 39.9998 45.267 40.607C45.4273 41.2139 45.4007 41.756 45.1871 42.2336C45.1016 42.413 44.9734 42.6072 44.8025 42.8165C44.6315 43.0254 44.3857 43.2391 44.065 43.4577C44.0011 43.4977 43.9051 43.5624 43.7769 43.6523C43.6487 43.7418 43.4777 43.8661 43.2641 44.0252C43.0499 44.2046 42.8896 44.3141 42.783 44.3539C42.7186 44.3938 42.6651 44.4335 42.6224 44.4733C42.6012 44.4733 42.5158 44.5132 42.366 44.5927C42.1312 44.7121 41.9015 44.8315 41.6768 44.9509C41.4524 45.0703 41.2227 45.1699 40.9875 45.2494C40.7311 45.3491 40.4639 45.4389 40.1859 45.5183C39.9083 45.598 39.6306 45.6776 39.3526 45.7571C38.9891 45.8368 38.6095 45.8916 38.2139 45.9215C37.8187 45.951 37.4183 45.9657 37.0126 45.9657C36.5419 45.9657 36.1305 45.946 35.7781 45.906C35.4256 45.8663 35.1424 45.7967 34.9283 45.6974C34.629 45.5579 34.3834 45.4982 34.1915 45.5183C33.9778 45.5381 33.8065 45.6275 33.678 45.7866C33.5285 45.946 33.3951 46.2346 33.2775 46.6526C33.1598 47.0708 33.1119 47.4292 33.1335 47.7278C33.1762 48.4241 33.5393 48.8819 34.2232 49.1009C34.6078 49.2007 35.0781 49.2505 35.6341 49.2505C36.3394 49.2505 37.0553 49.1807 37.7818 49.0412C37.9527 49.0015 38.1127 48.9718 38.2622 48.952C38.412 48.9319 38.551 48.9218 38.6792 48.9218C38.6792 48.9218 38.8074 48.8921 39.0638 48.8326C39.5343 48.7526 40.0152 48.6728 40.5064 48.5931C40.9979 48.5137 41.4897 48.434 41.9814 48.3543C42.7294 48.2749 43.4134 48.1355 44.0333 47.9365C44.3324 47.8372 44.621 47.7875 44.899 47.7875C45.0699 47.7875 45.1767 47.8075 45.2195 47.8472C45.3904 47.9269 45.4545 48.0163 45.4118 48.1156C45.369 48.2153 45.2728 48.3148 45.123 48.414C45.0591 48.5334 44.9257 48.6929 44.7226 48.8923C44.5195 49.0913 44.3002 49.2953 44.065 49.504C43.8302 49.713 43.6057 49.907 43.3916 50.0863C43.1779 50.2657 43.007 50.3952 42.8788 50.4746C42.7722 50.5342 42.7189 50.5739 42.7189 50.594C42.6973 50.594 42.6757 50.6041 42.6541 50.6242C42.6328 50.644 42.5904 50.6737 42.5266 50.7134C41.6714 51.2511 40.7469 51.6488 39.753 51.9074C38.7595 52.1663 37.7498 52.2958 36.7238 52.2958C35.8475 52.2958 35.1155 52.2409 34.5278 52.1314C33.9401 52.0218 33.2721 51.7582 32.5242 51.3406C31.8403 50.9422 31.2689 50.5342 30.8094 50.1165C30.3499 49.6984 29.9811 49.111 29.7031 48.3543C29.4038 47.5384 29.4145 46.4136 29.7348 44.9804C30.0344 43.7266 30.5421 42.5425 31.258 41.428C31.9739 40.3132 32.8449 39.3278 33.871 38.4719C34.1274 38.2331 34.3516 38.0639 34.5437 37.9642C34.5653 37.9445 34.5865 37.9298 34.6078 37.9199C34.6294 37.9097 34.6506 37.8947 34.6719 37.8749C34.7788 37.7555 35.1316 37.5763 35.7299 37.337C36.2214 37.1183 36.7558 36.9444 37.3331 36.8151C37.9102 36.6855 38.4765 36.6206 39.0321 36.6206ZM39.8978 39.4271C39.7268 39.4075 39.5773 39.3927 39.4491 39.3828C39.3209 39.3726 39.1924 39.3674 39.0638 39.3674C38.3162 39.3674 37.643 39.5965 37.0443 40.0543C36.446 40.5122 35.9332 41.0099 35.5059 41.5474C35.4631 41.6467 35.4204 41.7163 35.3777 41.756C35.3349 41.7959 35.3028 41.8258 35.2812 41.8459C34.8537 42.463 34.6402 42.8312 34.6402 42.9506C34.6402 43.07 34.7255 43.1497 34.8966 43.1894C35.0675 43.2293 35.2065 43.2491 35.3136 43.2491C35.8691 43.2491 36.7558 43.0502 37.9741 42.6521C38.2093 42.5525 38.4444 42.458 38.6792 42.3684C38.9143 42.2785 39.1924 42.1541 39.5132 41.9948C40.0687 41.7364 40.4747 41.5175 40.7311 41.3381C41.1157 41.0993 41.3507 40.8805 41.4362 40.6814C41.586 40.4029 41.5327 40.1639 41.2763 39.9644C41.1265 39.845 40.9927 39.7605 40.8751 39.7108C40.7579 39.6612 40.6566 39.6263 40.5712 39.6062C40.5923 39.6062 40.5174 39.5864 40.3465 39.5465C40.261 39.5269 40.1861 39.5073 40.1218 39.4875C40.0579 39.4673 39.9832 39.4472 39.8978 39.4271Z" fill="#101010"/>
<path d="M57.6573 36.9788C58.1704 36.9788 58.6836 37.1382 59.1964 37.457C59.7092 37.7755 60.0831 38.1536 60.3185 38.5913C60.532 38.9696 60.639 39.5569 60.639 40.3527C60.6174 40.91 60.5904 41.4077 60.5583 41.8458C60.5266 42.2837 60.4785 42.6719 60.4143 43.0103C60.393 43.0502 60.3718 43.1248 60.3502 43.2343C60.3289 43.3435 60.3077 43.4777 60.2861 43.6368C60.2432 43.7964 60.222 43.921 60.222 44.0104C60.222 44.1 60.222 44.1546 60.222 44.1748C60.2007 44.2343 60.1688 44.3636 60.1262 44.5625C60.1262 44.5826 60.1154 44.6923 60.0938 44.8911C60.0725 45.0902 60.0513 45.3042 60.0297 45.5331C60.0084 45.7621 59.9872 45.9711 59.9656 46.1602C59.9443 46.3494 59.9339 46.4539 59.9339 46.4735V46.7123C59.9123 46.7723 59.9015 46.837 59.9015 46.9068C59.9015 46.9762 59.8908 47.0607 59.8698 47.1603C59.7626 48.036 59.9868 48.5334 60.5425 48.6528C60.9487 48.7325 61.3867 48.633 61.8569 48.3543C62.092 48.2153 62.2739 48.2153 62.4021 48.3543C62.7867 48.7326 62.7867 49.28 62.4021 49.9963C62.1028 50.5737 61.718 51.0414 61.2476 51.3996C60.7774 51.7581 60.1791 51.9375 59.4528 51.9375C58.8971 51.9375 58.4164 51.843 58.0102 51.6538C57.604 51.4647 57.2671 51.2109 56.9997 50.8925C56.7327 50.5742 56.5352 50.2009 56.407 49.773C56.2788 49.345 56.2147 48.8921 56.2147 48.414C56.2147 48.3546 56.2307 48.1755 56.2629 47.8767C56.295 47.5781 56.3324 47.2298 56.3753 46.8317C56.4179 46.4337 56.466 46.0257 56.5193 45.6075C56.5726 45.1895 56.6205 44.8313 56.6634 44.5329C56.685 44.4333 56.7062 44.2988 56.7275 44.1298C56.7491 43.9608 56.7703 43.7567 56.7916 43.5174C56.8348 43.2389 56.8616 43.0101 56.8722 42.8312C56.8827 42.6519 56.8989 42.5225 56.9205 42.4428C56.9842 42.0248 57.0323 41.6963 57.0645 41.4575C57.0966 41.2187 57.102 41.0892 57.0804 41.0691C56.9738 40.9698 56.856 40.95 56.7275 41.0094C56.6419 41.0295 56.5778 41.0595 56.5352 41.0993C56.5139 41.0993 56.4606 41.1392 56.3753 41.2187C55.8196 41.6168 55.264 42.0348 54.708 42.473C54.1523 42.9109 53.6928 43.4185 53.3295 43.9957C53.2439 44.1151 53.1532 44.319 53.0572 44.6074C52.9611 44.8958 52.8701 45.2243 52.7843 45.5928C52.6987 45.9608 52.6238 46.349 52.5595 46.7572C52.4956 47.165 52.4531 47.5581 52.4321 47.9364C52.4105 48.1953 52.373 48.4891 52.3197 48.8178C52.2664 49.1462 52.1861 49.4795 52.0792 49.8179C51.9726 50.156 51.8496 50.4744 51.7104 50.7731C51.5716 51.0714 51.4059 51.3201 51.2135 51.5197C50.8931 51.8178 50.5512 51.9671 50.1879 51.9671C49.9315 51.9671 49.6589 51.9074 49.3704 51.788C49.0818 51.6686 48.8094 51.5143 48.553 51.3251C48.2966 51.136 48.0828 50.922 47.912 50.6832C47.7409 50.4444 47.6341 50.2056 47.5915 49.9668C47.527 49.6682 47.5484 49.2302 47.6556 48.6528C47.6766 48.5535 47.6977 48.4393 47.7189 48.31C47.7406 48.1804 47.7726 48.036 47.8155 47.8767C47.8581 47.7176 47.917 47.4788 47.9919 47.1603C48.0668 46.8421 48.1469 46.5037 48.2325 46.1455C48.3178 45.7869 48.4033 45.4385 48.4889 45.1004C48.5742 44.762 48.6489 44.4732 48.7128 44.2345C48.8198 43.7767 48.9161 43.3985 49.0017 43.1002C49.087 42.8015 49.1511 42.5227 49.194 42.2637C49.2582 41.9651 49.2797 41.5868 49.2581 41.1288C49.2368 40.4523 49.1515 40.0344 49.0017 39.8751C48.8735 39.716 48.7024 39.6263 48.4889 39.6062C48.1469 39.5468 47.8264 39.5569 47.5274 39.6363C47.356 39.6959 47.2274 39.7058 47.142 39.6659C47.0355 39.6065 46.9552 39.5121 46.9015 39.3828C46.8482 39.2532 46.8536 39.1485 46.9181 39.0689C47.0889 38.7305 47.3934 38.4518 47.8313 38.2331C48.2696 38.0141 48.692 37.9044 49.0982 37.9044C49.5894 37.9044 50.0218 38.0238 50.396 38.2626C50.77 38.5014 51.1065 38.7902 51.4058 39.1286C51.5127 39.2283 51.5876 39.313 51.6305 39.3828C51.6731 39.4522 51.7266 39.5067 51.7911 39.5465C51.983 39.7259 52.1753 39.8154 52.368 39.8154C52.5172 39.8154 52.6777 39.736 52.8491 39.5766C53.1481 39.2981 53.4847 39.0045 53.8588 38.6959C54.2328 38.3874 54.6334 38.1088 55.0609 37.8601C55.4881 37.6111 55.9208 37.402 56.3587 37.233C56.797 37.0636 57.2298 36.9788 57.6573 36.9788Z" fill="#101010"/>
<path d="M77.4056 36.6802C77.6407 36.6802 77.8919 36.7451 78.1589 36.8747C78.4263 37.004 78.6721 37.1682 78.8964 37.367C79.1211 37.5661 79.3028 37.7901 79.4416 38.0392C79.5803 38.2878 79.6498 38.5315 79.6498 38.7703C79.6498 38.8701 79.639 39.0195 79.6174 39.2184C79.5961 39.4174 79.5324 39.6661 79.4258 39.9643C78.998 41.1985 78.7412 42.1441 78.6559 42.8009C78.6559 42.8009 78.6345 42.9005 78.5918 43.0994C78.5279 43.7165 78.496 44.3138 78.496 44.891C78.496 45.4684 78.5172 46.0158 78.5601 46.5331C78.6454 47.0903 78.7898 47.5332 78.9929 47.8619C79.196 48.1902 79.6393 48.3542 80.3232 48.3542C80.7078 48.3542 81.0603 48.2548 81.3812 48.0557C81.4665 48.016 81.5306 47.9912 81.5735 47.9813C81.6162 47.9715 81.6588 47.9565 81.7017 47.9363C81.787 47.9167 81.9152 47.9068 82.0863 47.9068C82.2572 47.9068 82.3427 47.9167 82.3427 47.9363C82.3427 48.2548 82.2732 48.5982 82.1345 48.9666C81.9957 49.3347 81.814 49.6929 81.5893 50.0412C81.365 50.3897 81.114 50.7131 80.836 51.0118C80.5583 51.3105 80.2911 51.5493 80.0344 51.7282C79.8849 51.8278 79.7407 51.8925 79.6015 51.922C79.4627 51.9519 79.3079 51.9571 79.137 51.9375C78.4315 51.8377 77.7797 51.6188 77.1816 51.2808C76.5833 50.9424 76.0382 50.5441 75.5467 50.0861C75.3969 49.9466 75.2096 49.8224 74.9849 49.7132C74.7606 49.6037 74.6165 49.5688 74.5528 49.6086C74.3817 49.7078 74.2215 49.8272 74.0717 49.9667C73.9222 50.1063 73.7836 50.2557 73.6554 50.4148C73.484 50.5937 73.2486 50.7977 72.9496 51.0266C72.6503 51.2556 72.3727 51.4495 72.1163 51.6088C71.6672 51.9472 71.1757 52.1912 70.6413 52.3406C70.1072 52.4898 69.5624 52.5646 69.0064 52.5646C68.4291 52.5646 67.8787 52.4848 67.3549 52.3252C66.8315 52.1659 66.3453 51.9418 65.8965 51.6531C65.4479 51.3646 65.0633 51.0165 64.7427 50.6087C64.4224 50.2005 64.1766 49.7377 64.0052 49.2202C63.9412 48.9814 63.8932 48.7129 63.8611 48.4146C63.8289 48.1159 63.8341 47.7774 63.877 47.399C64.0478 45.9659 64.2562 44.6621 64.5021 43.4878C64.7479 42.3136 65.0525 41.0992 65.4161 39.8449C65.4587 39.6857 65.4906 39.5316 65.5119 39.3827C65.5335 39.2335 65.5655 39.0792 65.6084 38.9199C65.7153 38.6408 65.7902 38.4019 65.8331 38.2028C65.8758 38.0039 65.9505 37.8446 66.0571 37.7252C66.3561 37.3469 66.6448 37.1578 66.9228 37.1578C67.0726 37.1578 67.2435 37.2027 67.4356 37.2926C67.6281 37.3821 67.8203 37.4916 68.0125 37.6213C68.2049 37.7506 68.3814 37.8849 68.5418 38.0244C68.7021 38.1636 68.8143 38.2826 68.8782 38.3819C68.9635 38.5214 69.0224 38.6561 69.0546 38.7857C69.0867 38.915 69.1133 39.0393 69.1346 39.1587C69.1562 39.2579 69.167 39.3624 69.167 39.4719C69.167 39.5816 69.1774 39.7058 69.1987 39.8449C69.1987 39.9049 69.1772 40.0541 69.1346 40.2929C69.0917 40.5317 69.0382 40.7856 68.974 41.0543C68.91 41.3231 68.8515 41.5768 68.7982 41.8156C68.7449 42.0544 68.7075 42.2137 68.6859 42.2932C68.3013 43.9853 68.0235 45.2793 67.8526 46.1749C67.6815 47.0707 67.6495 47.7572 67.7561 48.2348C67.7987 48.5135 67.8468 48.6976 67.9001 48.7875C67.9538 48.8771 68.0235 48.9416 68.109 48.9814C68.3225 49.0812 68.5471 49.0713 68.7824 48.9519C69.3379 48.693 69.8559 48.3546 70.3366 47.9363C70.8177 47.5183 71.2666 47.0606 71.6834 46.5633C72.1001 46.0656 72.4742 45.543 72.8055 44.9957C73.1368 44.4483 73.4093 43.9258 73.623 43.4281C73.9437 42.6916 74.2427 41.9454 74.5204 41.1891C74.7984 40.4325 75.055 39.7655 75.2903 39.1882C75.4612 38.7304 75.6108 38.3571 75.739 38.0687C75.8672 37.7802 75.9954 37.5663 76.1236 37.4267C76.2945 37.2077 76.476 37.0286 76.6681 36.8895C76.8606 36.7499 77.1063 36.6802 77.4056 36.6802Z" fill="#101010"/>
<path d="M94.358 42.9992C94.7023 43.0118 94.9749 43.0358 95.1762 43.071C95.5775 43.1421 95.9234 43.337 96.214 43.6552C96.5044 43.9737 96.7097 44.3049 96.8298 44.6486C96.8537 44.7015 96.8717 44.741 96.8838 44.7674C96.8962 44.7934 96.8991 44.822 96.8925 44.8532C96.9803 44.9337 97.0144 45.15 96.9947 45.5019C97.0023 45.6325 96.9969 45.7648 96.9782 45.899C96.9594 46.0328 96.9157 46.1824 96.8471 46.3477C96.799 46.5816 96.7304 46.7473 96.6411 46.8447C96.595 46.9011 96.3941 47.0996 96.0383 47.4404C95.6825 47.7811 95.165 48.2544 94.4862 48.8597C94.4367 48.9322 94.3497 49.018 94.2255 49.1173C94.1011 49.2162 94.019 49.2783 93.9792 49.3038C93.8005 49.4983 93.6227 49.6687 93.4455 49.8149C93.2683 49.9608 93.0767 50.1126 92.8707 50.2703C92.8048 50.3393 92.7555 50.3909 92.7224 50.4253C92.6893 50.4598 92.6612 50.491 92.6381 50.5192C92.5555 50.5854 92.495 50.6272 92.4566 50.6446C92.4181 50.6621 92.3875 50.6852 92.3644 50.7137C92.1257 50.9455 91.9002 51.1355 91.6881 51.2839C91.4759 51.432 91.2884 51.5641 91.1257 51.6803C90.8376 51.904 90.5905 52.0945 90.3845 52.2518C90.1789 52.4088 90.0147 52.5332 89.8919 52.6247C89.8127 52.6749 89.7365 52.7299 89.6636 52.7898C89.5905 52.8498 89.5125 52.9128 89.4295 52.9789C89.2273 53.1208 88.97 53.2771 88.6575 53.4478C88.3452 53.6182 87.9898 53.8298 87.5908 54.0823L87.4417 54.1769C87.4187 54.2047 87.4054 54.2265 87.4021 54.2426C87.4154 54.2611 87.4651 54.2941 87.5512 54.3419C87.6371 54.3894 87.6882 54.4144 87.7046 54.417C87.7214 54.4202 87.7422 54.4241 87.7673 54.4284C87.7921 54.433 87.8481 54.4345 87.9351 54.4331C87.9686 54.4395 88.019 54.4484 88.0863 54.46C88.1728 54.4596 88.3197 54.4616 88.5271 54.466C88.6611 54.4898 88.824 54.5188 89.0161 54.5532C89.2086 54.5872 89.4254 54.6094 89.6665 54.6196C89.7169 54.6287 89.777 54.6313 89.8473 54.6277C89.9173 54.6241 89.9857 54.6282 90.0525 54.6397C90.2931 54.6501 90.4604 54.6798 90.5545 54.7289C91.655 54.8596 92.4602 54.95 92.9701 54.9999C93.4801 55.0501 93.8236 55.0663 94.0008 55.0489C94.0742 55.0298 94.1401 55.0254 94.1988 55.0362C94.2573 55.0466 94.3115 55.0559 94.3616 55.0643C94.4786 55.0855 94.6083 55.173 94.7505 55.3273C95.1922 55.7128 95.5017 56.107 95.6789 56.5098C95.9828 57.1452 96.014 57.7568 95.7725 58.3444C95.4949 59.0219 95.107 59.3485 94.6086 59.3244C94.4352 59.326 94.2026 59.2769 93.9107 59.1768C93.6057 59.0577 93.3295 58.9684 93.0818 58.9085C92.834 58.8485 92.6179 58.8022 92.4336 58.7696C92.3466 58.7696 92.2402 58.7584 92.1145 58.7361C91.9892 58.7141 91.9013 58.6987 91.8509 58.6898C91.6271 58.6826 91.3714 58.6617 91.0839 58.6268C90.7962 58.5919 90.4834 58.5525 90.1454 58.5087L89.4432 58.384C89.2722 58.3695 89.1274 58.356 89.0089 58.343C88.8903 58.3305 88.7893 58.3169 88.7057 58.3021C88.5683 58.2936 88.4536 58.281 88.3614 58.2646C88.2693 58.248 88.2062 58.2367 88.1728 58.231C87.885 58.1961 87.5874 58.1675 87.2797 58.1452C86.9723 58.1232 86.6734 58.1026 86.383 58.0835C86.2955 58.0838 86.1515 58.0663 85.9509 58.0311C85.6628 57.9957 85.3758 57.977 85.0902 57.9748C84.805 57.9724 84.5238 57.9711 84.2468 57.9708C84.0887 57.9748 83.8639 57.9912 83.572 58.0204C83.2799 58.0494 82.9339 58.0689 82.5334 58.0788L82.1179 58.0774L81.6944 57.9781C81.5642 57.9387 81.4454 57.9054 81.3379 57.8782C81.2307 57.8514 81.1553 57.8178 81.1117 57.7776C80.762 57.5383 80.4723 57.2163 80.2424 56.8117C80.0128 56.4075 79.8429 56.0099 79.7325 55.6191C79.6317 55.2622 79.5915 54.9483 79.6122 54.6773C79.6333 54.406 79.7154 54.2185 79.8585 54.1152C80.0472 53.9552 80.506 53.7459 81.2349 53.4874C81.8514 53.2737 82.4737 53.0084 83.1017 52.6918C83.7301 52.3752 84.3507 52.0331 84.9635 51.6655C85.576 51.298 86.1713 50.9109 86.7489 50.5044C87.3265 50.098 87.8638 49.6967 88.3607 49.3004C88.4005 49.2749 88.4279 49.2474 88.4428 49.2179C88.4576 49.1884 88.4749 49.1669 88.4947 49.1535C88.5149 49.1414 88.5404 49.1223 88.5718 49.0958C88.6034 49.069 88.6391 49.0428 88.6791 49.0174C88.7385 48.9798 88.7997 48.9342 88.8627 48.8805C88.9765 48.8362 89.4177 48.5027 90.1865 47.8797C90.2493 47.8266 90.3287 47.756 90.4249 47.6678C90.5208 47.5797 90.6503 47.4773 90.8131 47.3606C90.9989 47.2157 91.1438 47.1001 91.2481 47.0138C91.3522 46.9276 91.429 46.8486 91.4786 46.777C91.5803 46.617 91.6091 46.4765 91.565 46.3558L91.5088 46.2484L91.2373 46.1767C91.1537 46.1619 91.0616 46.1456 90.9607 46.1277C90.8603 46.1099 90.7499 46.0982 90.6294 46.0928C90.5099 46.0874 90.4123 46.0781 90.337 46.0646C90.2616 46.0512 90.1969 46.0479 90.1433 46.0546C90.1067 46.0645 90.0549 46.0636 89.9877 46.0519C89.9209 46.0398 89.8444 46.0343 89.758 46.0351C89.5808 46.0517 89.3665 46.0583 89.1155 46.0546C88.8649 46.0506 88.6031 46.0365 88.3305 46.0123C88.0582 45.9878 87.7999 45.958 87.5555 45.9231C87.3115 45.8879 87.0975 45.8538 86.9131 45.8211C86.5784 45.7618 86.235 45.6808 85.8832 45.5783C85.5317 45.4755 85.199 45.3439 84.8849 45.1832C84.5709 45.0223 84.2958 44.82 84.0596 44.5762C83.8233 44.332 83.6615 44.0408 83.5741 43.7022C83.5434 43.5999 83.5345 43.5176 83.5475 43.4554C83.5864 43.3494 83.6599 43.2655 83.7679 43.2038C83.8763 43.1421 83.9987 43.0951 84.1352 43.063C84.2715 43.0304 84.4089 43.0143 84.5472 43.0147C84.6858 43.0152 84.8054 43.0244 84.9058 43.0422C85.1738 43.0901 85.4255 43.1106 85.6613 43.1039C85.897 43.0972 86.1482 43.0769 86.4147 43.0428C86.4314 43.046 86.4705 43.0452 86.5321 43.0401C86.594 43.0348 86.6785 43.0252 86.7856 43.0113C87.1029 42.9877 87.5382 42.9804 88.0914 42.9898C88.6445 42.9989 89.3118 42.9999 90.0936 42.9932C90.2337 42.9856 90.3503 42.9863 90.4436 42.9952C90.5372 43.0038 90.6024 43.0031 90.6395 42.9932C90.6726 42.9991 90.7059 43.0051 90.7396 43.0113C90.8131 42.9917 90.8599 42.9758 90.8801 42.9637C90.9971 42.9843 91.0691 42.9929 91.0961 42.9892C91.123 42.9856 91.2063 42.9801 91.346 42.9724C91.3997 42.9662 91.4658 42.962 91.5441 42.9597C91.6222 42.9575 91.7034 42.9637 91.7875 42.9784C91.8374 42.9875 91.9282 42.9877 92.0598 42.9791C92.1918 42.9702 92.3149 42.9838 92.4293 43.02C92.6698 43.0304 92.8844 43.0401 93.0731 43.0495C93.2622 43.0586 93.4183 43.0581 93.5413 43.0482C93.5748 43.0541 93.676 43.0475 93.8445 43.0287C94.0134 43.01 94.1846 43.0002 94.358 42.9992Z" fill="#101010"/>
<mask id="mask0_659_106" style="mask-type:luminance" maskUnits="userSpaceOnUse" x="43" y="2" width="7" height="5">
<path d="M43.2251 2.01135H49.1379V6.22629H43.2251V2.01135Z" fill="white"/>
</mask>
<g mask="url(#mask0_659_106)">
<mask id="mask1_659_106" style="mask-type:luminance" maskUnits="userSpaceOnUse" x="43" y="2" width="7" height="5">
<path d="M43.2266 3.71007C43.2266 3.71007 43.2521 3.61029 43.2651 3.5625C43.2779 3.51471 43.3036 3.41896 43.3036 3.41493C43.3036 3.41493 43.3549 3.32723 43.3807 3.27944C43.4063 3.2355 43.4534 3.1478 43.4534 3.1478C43.4578 3.1478 43.4578 3.1478 43.4578 3.1478C43.4578 3.14378 43.5262 3.06815 43.5647 3.03226C43.5989 2.99235 43.6718 2.92058 43.6718 2.91655C43.6718 2.91655 43.7617 2.86071 43.8045 2.83288C43.8515 2.80487 43.9372 2.74517 43.9416 2.74517C43.9416 2.74517 44.0442 2.70929 44.0914 2.69319C44.1427 2.6734 44.207 2.66938 44.2455 2.63735C44.2797 2.60951 44.3182 2.51376 44.3182 2.51376C44.3226 2.5099 44.3953 2.44199 44.4295 2.4061C44.468 2.37021 44.5366 2.29844 44.541 2.29844C44.541 2.29458 44.6308 2.2426 44.6737 2.21476C44.7165 2.19078 44.8064 2.13494 44.8064 2.13494C44.8107 2.13494 44.9092 2.10308 44.9605 2.08715C45.0075 2.07122 45.106 2.03936 45.1103 2.03936C45.1103 2.03936 45.2174 2.03131 45.2687 2.02728C45.3244 2.02343 45.4272 2.01135 45.4272 2.01135C45.4315 2.01135 45.5341 2.02728 45.5856 2.03533C45.637 2.04338 45.7439 2.05931 45.7439 2.05931C45.7482 2.05931 46.0736 2.15104 46.1764 2.20286C46.2448 2.23472 46.2535 2.26658 46.3305 2.30649C46.5145 2.4061 47.1826 2.62544 47.2938 2.71717C47.3239 2.74115 47.3109 2.76496 47.3367 2.78106C47.3624 2.80085 47.4651 2.8089 47.4694 2.8089C47.4694 2.8089 47.5551 2.85283 47.5978 2.87262C47.6406 2.89257 47.7263 2.93651 47.7263 2.93651C47.7306 2.93651 47.7991 2.99637 47.8376 3.02824C47.8761 3.05607 47.9445 3.11594 47.9489 3.11594C47.9489 3.11996 48.0088 3.19962 48.0302 3.23148C48.0474 3.25143 48.0645 3.27541 48.0731 3.28732C48.0774 3.29134 48.0774 3.29134 48.0816 3.29537C48.103 3.31935 48.2015 3.43489 48.2443 3.51471C48.2829 3.58648 48.2829 3.68207 48.3385 3.74998C48.3985 3.82964 48.6082 3.95322 48.6082 3.95322C48.6125 3.95725 48.6853 4.02114 48.7238 4.053C48.7624 4.08486 48.8351 4.15261 48.8351 4.15261C48.8394 4.15261 48.8394 4.15261 48.8394 4.15261C48.8394 4.15663 48.8951 4.23646 48.9208 4.2762C48.9507 4.31611 49.0063 4.39593 49.0063 4.39593C49.0063 4.39996 49.0407 4.48766 49.0578 4.53545C49.0749 4.57939 49.1091 4.67095 49.1091 4.67095C49.1091 4.67497 49.1219 4.7667 49.1262 4.81851C49.1306 4.86647 49.1392 4.95803 49.1392 4.96206C49.1392 4.96206 49.1219 5.05781 49.1178 5.1056C49.1091 5.15356 49.092 5.24915 49.092 5.24915C49.092 5.25317 49.0535 5.34087 49.0321 5.38481C49.015 5.42858 48.9764 5.51628 48.9721 5.52031C48.9721 5.52031 48.9122 5.5961 48.8823 5.63601C48.8522 5.67592 48.7924 5.75155 48.7881 5.75558C48.7881 5.75558 48.711 5.81544 48.6682 5.8473C48.6297 5.87917 48.5526 5.93903 48.5483 5.93903C48.5483 5.94306 48.4584 5.98297 48.4112 6.00275C48.3643 6.02673 48.2701 6.06665 48.2701 6.06665C48.2658 6.07067 48.1673 6.09063 48.116 6.09851C48.0645 6.11041 47.966 6.13037 47.966 6.13037C47.9618 6.13037 47.9618 6.13037 47.9618 6.13037C47.9618 6.13037 47.859 6.12651 47.8077 6.12651C47.7562 6.12651 47.6534 6.12249 47.6534 6.12249C47.6493 6.12249 47.5508 6.09448 47.4993 6.08258C47.4523 6.07067 47.3538 6.04669 47.3495 6.04669V6.04267C47.3495 6.04267 47.2596 5.9989 47.2124 5.97492C47.1698 5.95094 47.0797 5.90315 47.0797 5.90315C47.0754 5.90315 47.067 5.89124 47.0583 5.88722C47.0455 5.88319 46.9984 5.89124 46.9942 5.89124C46.9899 5.8951 46.9128 6.06262 46.8143 6.10253C46.6516 6.17028 46.0651 6.05071 46.0266 6.0586C46.0223 6.0586 46.0266 6.0586 46.0223 6.0586C46.0095 6.06665 45.9324 6.11846 45.8939 6.13037C45.8681 6.14244 45.8467 6.13842 45.821 6.1463C45.7995 6.15435 45.7824 6.17028 45.7526 6.1743C45.714 6.18621 45.6541 6.18621 45.6069 6.19023C45.5556 6.19828 45.4999 6.2221 45.4614 6.2221C45.4315 6.22612 45.4101 6.21421 45.3887 6.21421C45.3629 6.21421 45.3415 6.22612 45.3116 6.2221C45.2731 6.2221 45.2174 6.20214 45.1659 6.19426C45.1189 6.18621 45.059 6.19023 45.0161 6.18219C44.9904 6.1743 44.9733 6.15837 44.9518 6.15032C44.9263 6.1463 44.9049 6.1463 44.8791 6.13842C44.8406 6.12249 44.7763 6.07855 44.7507 6.06665C44.7336 6.0586 44.7293 6.0586 44.7165 6.05474C44.6951 6.04669 44.6693 6.04267 44.6395 6.03864C44.5923 6.03076 44.4767 6.0108 44.4767 6.0108C44.4724 6.0108 44.3739 5.96687 44.3226 5.94708C44.2754 5.9231 44.1769 5.88319 44.1728 5.87917C44.1728 5.87917 44.087 5.81544 44.0442 5.78358C44.0015 5.75155 43.9158 5.68783 43.9158 5.68783C43.9115 5.68783 43.8474 5.60801 43.813 5.56424C43.7788 5.52433 43.7145 5.44451 43.7104 5.44451C43.7104 5.44065 43.6675 5.34892 43.6461 5.30096C43.6247 5.2572 43.5777 5.16144 43.5777 5.16144C43.5777 5.15742 43.5604 5.05781 43.5519 5.01002C43.5391 4.95803 43.5219 4.85843 43.5219 4.85843C43.5219 4.8544 43.5305 4.81063 43.5262 4.79856C43.5219 4.7947 43.5177 4.79068 43.5177 4.79068C43.5177 4.79068 43.4619 4.70298 43.432 4.66306C43.4063 4.61913 43.3506 4.53143 43.3465 4.53143C43.3465 4.5274 43.3164 4.43182 43.2993 4.38386C43.2822 4.33607 43.2521 4.24031 43.2521 4.24031C43.2521 4.23646 43.2437 4.10884 43.2437 4.08486C43.2437 4.08084 43.2437 4.08084 43.2437 4.07296C43.2393 4.06088 43.2266 4.01712 43.2266 4.01309C43.2266 4.01309 43.2266 3.91348 43.2266 3.8615C43.2266 3.8137 43.2266 3.71007 43.2266 3.71007Z" fill="white"/>
</mask>
<g mask="url(#mask1_659_106)">
<path d="M43.0542 1.85193H49.3102V6.38565H43.0542V1.85193Z" fill="white"/>
</g>
</g>
</svg>
