<svg width="292" height="220" viewBox="0 0 292 220" fill="none" xmlns="http://www.w3.org/2000/svg">
<circle cx="146.078" cy="103.5" r="103.5" fill="#C53057" fill-opacity="0.15"/>
<circle cx="39.3438" cy="32.3438" r="9.70312" fill="#C53057"/>
<circle cx="34.4922" cy="181.125" r="12.9375" fill="#C53057"/>
<circle cx="265.75" cy="58.2188" r="12.9375" fill="#C53057"/>
<circle cx="247.961" cy="14.5547" r="8.08594" fill="#C53057"/>
<g filter="url(#filter0_dd_40_171)">
<path fill-rule="evenodd" clip-rule="evenodd" d="M84.625 155.25C113.206 155.25 136.375 132.081 136.375 103.5C136.375 74.9193 113.206 51.75 84.625 51.75C56.0443 51.75 32.875 74.9193 32.875 103.5C32.875 132.081 56.0443 155.25 84.625 155.25ZM214 155.25C239.008 155.25 259.281 134.977 259.281 109.969C259.281 84.9606 239.008 64.6875 214 64.6875C188.992 64.6875 168.719 84.9606 168.719 109.969C168.719 134.977 188.992 155.25 214 155.25Z" fill="#F9F5FF"/>
<circle cx="84.625" cy="103.5" r="51.75" fill="url(#paint0_linear_40_171)"/>
<circle cx="149.312" cy="90.5625" r="64.6875" fill="url(#paint1_linear_40_171)"/>
<circle cx="214" cy="109.969" r="45.2812" fill="url(#paint2_linear_40_171)"/>
</g>
<g filter="url(#filter1_b_40_171)">
<rect x="100.797" y="97.0312" width="90.5625" height="90.5625" rx="45.2812" fill="#C53057"/>
<path d="M163.059 159.293L156.455 152.689M161.172 141.369C161.172 150.226 153.992 157.406 145.135 157.406C136.278 157.406 129.098 150.226 129.098 141.369C129.098 132.512 136.278 125.332 145.135 125.332C153.992 125.332 161.172 132.512 161.172 141.369Z" stroke="white" stroke-width="3.23438" stroke-linecap="round" stroke-linejoin="round"/>
</g>
<defs>
<filter id="filter0_dd_40_171" x="0.53125" y="25.875" width="291.094" height="194.062" filterUnits="userSpaceOnUse" color-interpolation-filters="sRGB">
<feFlood flood-opacity="0" result="BackgroundImageFix"/>
<feColorMatrix in="SourceAlpha" type="matrix" values="0 0 0 0 0 0 0 0 0 0 0 0 0 0 0 0 0 0 127 0" result="hardAlpha"/>
<feMorphology radius="6.46875" operator="erode" in="SourceAlpha" result="effect1_dropShadow_40_171"/>
<feOffset dy="12.9375"/>
<feGaussianBlur stdDeviation="6.46875"/>
<feColorMatrix type="matrix" values="0 0 0 0 0.0627451 0 0 0 0 0.0941176 0 0 0 0 0.156863 0 0 0 0.03 0"/>
<feBlend mode="normal" in2="BackgroundImageFix" result="effect1_dropShadow_40_171"/>
<feColorMatrix in="SourceAlpha" type="matrix" values="0 0 0 0 0 0 0 0 0 0 0 0 0 0 0 0 0 0 127 0" result="hardAlpha"/>
<feMorphology radius="6.46875" operator="erode" in="SourceAlpha" result="effect2_dropShadow_40_171"/>
<feOffset dy="32.3438"/>
<feGaussianBlur stdDeviation="19.4062"/>
<feColorMatrix type="matrix" values="0 0 0 0 0.0627451 0 0 0 0 0.0941176 0 0 0 0 0.156863 0 0 0 0.08 0"/>
<feBlend mode="normal" in2="effect1_dropShadow_40_171" result="effect2_dropShadow_40_171"/>
<feBlend mode="normal" in="SourceGraphic" in2="effect2_dropShadow_40_171" result="shape"/>
</filter>
<filter id="filter1_b_40_171" x="87.8594" y="84.0938" width="116.438" height="116.438" filterUnits="userSpaceOnUse" color-interpolation-filters="sRGB">
<feFlood flood-opacity="0" result="BackgroundImageFix"/>
<feGaussianBlur in="BackgroundImageFix" stdDeviation="6.46875"/>
<feComposite in2="SourceAlpha" operator="in" result="effect1_backgroundBlur_40_171"/>
<feBlend mode="normal" in="SourceGraphic" in2="effect1_backgroundBlur_40_171" result="shape"/>
</filter>
<linearGradient id="paint0_linear_40_171" x1="44.8884" y1="69.308" x2="136.375" y2="155.25" gradientUnits="userSpaceOnUse">
<stop stop-color="#C53057" stop-opacity="0.35"/>
<stop offset="0.997917" stop-color="white"/>
</linearGradient>
<linearGradient id="paint1_linear_40_171" x1="99.6417" y1="47.8225" x2="214" y2="155.25" gradientUnits="userSpaceOnUse">
<stop stop-color="#C53057" stop-opacity="0.35"/>
<stop offset="0.997917" stop-color="white"/>
</linearGradient>
<linearGradient id="paint2_linear_40_171" x1="179.23" y1="80.0508" x2="259.281" y2="155.25" gradientUnits="userSpaceOnUse">
<stop stop-color="#C53057" stop-opacity="0.35"/>
<stop offset="0.997917" stop-color="white"/>
</linearGradient>
</defs>
</svg>
